<svg height="140" viewBox="0 0 740 1009" fill="none" xmlns="http://www.w3.org/2000/svg">
<path d="M146.817 973V901.09H152.019L153.855 915.472C155.589 910.882 158.547 907.21 162.729 904.456C166.911 901.6 171.603 900.172 176.805 900.172C179.253 900.172 181.395 900.376 183.231 900.784C185.067 901.192 186.495 901.651 187.515 902.161L185.985 909.199C184.761 908.689 183.384 908.23 181.854 907.822C180.324 907.414 178.539 907.21 176.499 907.21C173.541 907.21 170.736 907.72 168.084 908.74C165.534 909.76 163.239 911.341 161.199 913.483C159.261 915.625 157.68 918.328 156.456 921.592C155.334 924.754 154.773 928.528 154.773 932.914V973H146.817ZM252.537 937.045H201.282V939.187C201.282 948.163 203.679 955.201 208.473 960.301C213.369 965.299 219.999 967.798 228.363 967.798C234.993 967.798 241.215 966.676 247.029 964.432L248.865 970.552C246.213 971.674 243 972.541 239.226 973.153C235.554 973.867 231.78 974.224 227.904 974.224C223.11 974.224 218.571 973.51 214.287 972.082C210.105 970.654 206.433 968.461 203.271 965.503C200.109 962.443 197.61 958.618 195.774 954.028C193.938 949.336 193.02 943.726 193.02 937.198C193.02 931.588 193.785 926.488 195.315 921.898C196.845 917.308 199.038 913.432 201.894 910.27C204.75 907.006 208.116 904.507 211.992 902.773C215.868 901.039 220.203 900.172 224.997 900.172C229.077 900.172 232.8 900.937 236.166 902.467C239.634 903.895 242.541 905.986 244.887 908.74C247.335 911.494 249.222 914.809 250.548 918.685C251.874 922.561 252.537 926.845 252.537 931.537V937.045ZM244.275 930.619C244.275 927.661 243.918 924.754 243.204 921.898C242.49 918.94 241.317 916.339 239.685 914.095C238.155 911.851 236.115 910.066 233.565 908.74C231.117 907.312 228.108 906.598 224.538 906.598C218.316 906.598 213.114 908.689 208.932 912.871C204.852 917.053 202.404 922.969 201.588 930.619H244.275ZM317.51 967.645C314.96 969.991 312.053 971.674 308.789 972.694C305.525 973.714 301.853 974.224 297.773 974.224C292.673 974.224 288.083 973.357 284.003 971.623C280.025 969.889 276.659 967.39 273.905 964.126C271.151 960.862 269.009 956.986 267.479 952.498C266.051 947.908 265.337 942.757 265.337 937.045C265.337 931.741 266.051 926.845 267.479 922.357C268.907 917.869 270.998 913.993 273.752 910.729C276.506 907.363 279.872 904.762 283.85 902.926C287.828 901.09 292.418 900.172 297.62 900.172C301.904 900.172 305.831 900.937 309.401 902.467C312.971 903.895 315.929 905.935 318.275 908.587L319.346 901.09H325.466V1008.19H317.51V967.645ZM317.51 915.319C315.674 913.075 313.226 911.086 310.166 909.352C307.208 907.516 303.434 906.598 298.844 906.598C295.376 906.598 292.112 907.21 289.052 908.434C285.992 909.556 283.289 911.341 280.943 913.789C278.699 916.237 276.914 919.348 275.588 923.122C274.262 926.896 273.599 931.384 273.599 936.586C273.599 947.194 275.945 955.048 280.637 960.148C285.431 965.248 291.755 967.798 299.609 967.798C303.689 967.798 307.259 967.033 310.319 965.503C313.379 963.871 315.776 961.984 317.51 959.842V915.319ZM397.475 901.09H405.431V973H399.77L398.546 963.973H398.24C395.792 966.625 392.528 969.022 388.448 971.164C384.368 973.204 379.574 974.224 374.066 974.224C366.62 974.224 360.602 972.235 356.012 968.257C351.524 964.177 349.28 957.853 349.28 949.285V901.09H357.236V947.602C357.236 951.58 357.695 954.895 358.613 957.547C359.531 960.097 360.806 962.137 362.438 963.667C364.07 965.197 366.008 966.268 368.252 966.88C370.598 967.492 373.097 967.798 375.749 967.798C380.339 967.798 384.572 966.727 388.448 964.585C392.426 962.443 395.435 959.893 397.475 956.935V901.09ZM482.934 937.045H431.679V939.187C431.679 948.163 434.076 955.201 438.87 960.301C443.766 965.299 450.396 967.798 458.76 967.798C465.39 967.798 471.612 966.676 477.426 964.432L479.262 970.552C476.61 971.674 473.397 972.541 469.623 973.153C465.951 973.867 462.177 974.224 458.301 974.224C453.507 974.224 448.968 973.51 444.684 972.082C440.502 970.654 436.83 968.461 433.668 965.503C430.506 962.443 428.007 958.618 426.171 954.028C424.335 949.336 423.417 943.726 423.417 937.198C423.417 931.588 424.182 926.488 425.712 921.898C427.242 917.308 429.435 913.432 432.291 910.27C435.147 907.006 438.513 904.507 442.389 902.773C446.265 901.039 450.6 900.172 455.394 900.172C459.474 900.172 463.197 900.937 466.563 902.467C470.031 903.895 472.938 905.986 475.284 908.74C477.732 911.494 479.619 914.809 480.945 918.685C482.271 922.561 482.934 926.845 482.934 931.537V937.045ZM474.672 930.619C474.672 927.661 474.315 924.754 473.601 921.898C472.887 918.94 471.714 916.339 470.082 914.095C468.552 911.851 466.512 910.066 463.962 908.74C461.514 907.312 458.505 906.598 454.935 906.598C448.713 906.598 443.511 908.689 439.329 912.871C435.249 917.053 432.801 922.969 431.985 930.619H474.672ZM537.808 910.117C532.708 907.771 527.149 906.598 521.131 906.598C515.623 906.598 511.492 907.771 508.738 910.117C505.984 912.361 504.607 915.268 504.607 918.838C504.607 922.408 505.78 925.162 508.126 927.1C510.472 928.936 514.603 930.721 520.519 932.455L525.109 933.832C530.923 935.566 535.36 938.116 538.42 941.482C541.48 944.848 543.01 948.979 543.01 953.875C543.01 956.731 542.449 959.434 541.327 961.984C540.205 964.432 538.573 966.574 536.431 968.41C534.289 970.246 531.586 971.674 528.322 972.694C525.16 973.714 521.488 974.224 517.306 974.224C512.716 974.224 508.687 973.816 505.219 973C501.751 972.286 498.691 971.317 496.039 970.093L498.181 963.82C500.833 965.146 503.587 966.166 506.443 966.88C509.299 967.492 512.665 967.798 516.541 967.798C522.355 967.798 526.843 966.676 530.005 964.432C533.167 962.188 534.748 958.975 534.748 954.793C534.748 951.529 533.575 948.724 531.229 946.378C528.985 943.93 524.956 941.788 519.142 939.952L514.246 938.422C502.312 934.648 496.345 928.375 496.345 919.603C496.345 916.747 496.906 914.146 498.028 911.8C499.252 909.352 500.884 907.312 502.924 905.68C505.066 903.946 507.565 902.62 510.421 901.702C513.379 900.682 516.643 900.172 520.213 900.172C523.477 900.172 526.843 900.427 530.311 900.937C533.779 901.447 536.941 902.416 539.797 903.844L537.808 910.117ZM597.865 907.21H573.691V954.334C573.691 959.128 574.762 962.392 576.904 964.126C579.046 965.758 582.004 966.574 585.778 966.574C588.736 966.574 591.49 966.319 594.04 965.809C596.59 965.197 598.732 964.585 600.466 963.973L601.69 969.94C599.65 970.756 597.151 971.47 594.193 972.082C591.235 972.694 587.971 973 584.401 973C578.281 973 573.64 971.572 570.478 968.716C567.316 965.758 565.735 961.321 565.735 955.405V907.21H552.73V901.09H565.735V878.14H573.691V901.09H597.865V907.21Z" fill="#777"/>
<path d="M0 370C0 70 173 0 370 0C567 0 740 70 740 370C740 670 567 740 370 740C173 740 0 670 0 370Z" fill="#FAFA00"/>
<path d="M346.787 183H395.467L544.473 557H487.483L446.521 453.111H292.765L252.397 557H196L346.787 183ZM307.606 409.775H430.492L405.559 345.067C398.831 328.049 392.696 311.624 387.156 295.794C381.615 279.963 376.074 263.737 370.533 247.114H369.346C363.805 263.737 358.067 279.765 352.13 295.2C346.194 310.635 339.861 327.257 333.133 345.067L307.606 409.775Z" fill="white"/>
</svg>
